<mxfile host="Electron" modified="2025-03-28T09:40:56.724Z" agent="Mozilla/5.0 (Windows NT 10.0; Win64; x64) AppleWebKit/537.36 (KHTML, like Gecko) draw.io/21.5.0 Chrome/112.0.5615.204 Electron/24.5.1 Safari/537.36" etag="gWSJe6vMUg4UIWmRB_NL" version="21.5.0" type="device">
  <diagram name="第 1 页" id="nJRzv5rlB3VEnub_vDUY">
    <mxGraphModel dx="1415" dy="819" grid="1" gridSize="10" guides="1" tooltips="1" connect="1" arrows="1" fold="1" page="1" pageScale="1" pageWidth="827" pageHeight="1169" math="0" shadow="0">
      <root>
        <mxCell id="0" />
        <mxCell id="1" parent="0" />
        <mxCell id="pI973K098g65e1ilIYmJ-1" value="1" style="rounded=0;whiteSpace=wrap;html=1;fillColor=#ffe6cc;strokeColor=#d79b00;" parent="1" vertex="1">
          <mxGeometry x="450" y="185" width="70" height="30" as="geometry" />
        </mxCell>
        <mxCell id="LaAcIT-mZOWXAvsEYPyt-2" value="" style="shape=curlyBracket;whiteSpace=wrap;html=1;rounded=1;labelPosition=left;verticalLabelPosition=middle;align=right;verticalAlign=middle;rotation=90;size=0.5;" parent="1" vertex="1">
          <mxGeometry x="370" y="-12" width="20" height="280" as="geometry" />
        </mxCell>
        <mxCell id="LaAcIT-mZOWXAvsEYPyt-3" value="&lt;font style=&quot;font-size: 16px;&quot;&gt;向量寄存器长度 &lt;font color=&quot;#ff0000&quot;&gt;128&amp;nbsp;&lt;/font&gt;bit&lt;/font&gt;" style="text;strokeColor=none;align=center;fillColor=none;html=1;verticalAlign=middle;whiteSpace=wrap;rounded=0;" parent="1" vertex="1">
          <mxGeometry x="275.25" y="82" width="237.5" height="30" as="geometry" />
        </mxCell>
        <mxCell id="a2nmbCxX_LsTJUr5ybK8-1" value="2" style="rounded=0;whiteSpace=wrap;html=1;fillColor=#ffe6cc;strokeColor=#d79b00;" parent="1" vertex="1">
          <mxGeometry x="380" y="185" width="70" height="30" as="geometry" />
        </mxCell>
        <mxCell id="a2nmbCxX_LsTJUr5ybK8-2" value="3" style="rounded=0;whiteSpace=wrap;html=1;fillColor=#ffe6cc;strokeColor=#d79b00;" parent="1" vertex="1">
          <mxGeometry x="310" y="185" width="70" height="30" as="geometry" />
        </mxCell>
        <mxCell id="a2nmbCxX_LsTJUr5ybK8-3" value="4" style="rounded=0;whiteSpace=wrap;html=1;fillColor=#ffe6cc;strokeColor=#d79b00;" parent="1" vertex="1">
          <mxGeometry x="240" y="185" width="70" height="30" as="geometry" />
        </mxCell>
        <mxCell id="a2nmbCxX_LsTJUr5ybK8-4" value="5" style="rounded=0;whiteSpace=wrap;html=1;fillColor=#ffe6cc;strokeColor=#d79b00;" parent="1" vertex="1">
          <mxGeometry x="450" y="238.5" width="70" height="30" as="geometry" />
        </mxCell>
        <mxCell id="a2nmbCxX_LsTJUr5ybK8-5" value="6" style="rounded=0;whiteSpace=wrap;html=1;fillColor=#ffe6cc;strokeColor=#d79b00;" parent="1" vertex="1">
          <mxGeometry x="380" y="238.5" width="70" height="30" as="geometry" />
        </mxCell>
        <mxCell id="a2nmbCxX_LsTJUr5ybK8-6" value="7" style="rounded=0;whiteSpace=wrap;html=1;fillColor=#ffe6cc;strokeColor=#d79b00;" parent="1" vertex="1">
          <mxGeometry x="310" y="238.5" width="70" height="30" as="geometry" />
        </mxCell>
        <mxCell id="a2nmbCxX_LsTJUr5ybK8-7" value="8" style="rounded=0;whiteSpace=wrap;html=1;fillColor=#ffe6cc;strokeColor=#d79b00;" parent="1" vertex="1">
          <mxGeometry x="240" y="238.5" width="70" height="30" as="geometry" />
        </mxCell>
        <mxCell id="a2nmbCxX_LsTJUr5ybK8-8" value="9" style="rounded=0;whiteSpace=wrap;html=1;fillColor=#ffe6cc;strokeColor=#d79b00;" parent="1" vertex="1">
          <mxGeometry x="450" y="293.5" width="70" height="30" as="geometry" />
        </mxCell>
        <mxCell id="a2nmbCxX_LsTJUr5ybK8-9" value="10" style="rounded=0;whiteSpace=wrap;html=1;fillColor=#ffe6cc;strokeColor=#d79b00;" parent="1" vertex="1">
          <mxGeometry x="380" y="293.5" width="70" height="30" as="geometry" />
        </mxCell>
        <mxCell id="a2nmbCxX_LsTJUr5ybK8-10" value="11" style="rounded=0;whiteSpace=wrap;html=1;fillColor=#ffe6cc;strokeColor=#d79b00;" parent="1" vertex="1">
          <mxGeometry x="310" y="293.5" width="70" height="30" as="geometry" />
        </mxCell>
        <mxCell id="a2nmbCxX_LsTJUr5ybK8-11" value="12" style="rounded=0;whiteSpace=wrap;html=1;fillColor=#ffe6cc;strokeColor=#d79b00;" parent="1" vertex="1">
          <mxGeometry x="240" y="293.5" width="70" height="30" as="geometry" />
        </mxCell>
        <mxCell id="a2nmbCxX_LsTJUr5ybK8-12" value="13" style="rounded=0;whiteSpace=wrap;html=1;fillColor=#ffe6cc;strokeColor=#d79b00;" parent="1" vertex="1">
          <mxGeometry x="450" y="348.5" width="70" height="30" as="geometry" />
        </mxCell>
        <mxCell id="a2nmbCxX_LsTJUr5ybK8-13" value="14" style="rounded=0;whiteSpace=wrap;html=1;fillColor=#ffe6cc;strokeColor=#d79b00;" parent="1" vertex="1">
          <mxGeometry x="380" y="348.5" width="70" height="30" as="geometry" />
        </mxCell>
        <mxCell id="a2nmbCxX_LsTJUr5ybK8-14" value="15" style="rounded=0;whiteSpace=wrap;html=1;fillColor=#ffe6cc;strokeColor=#d79b00;" parent="1" vertex="1">
          <mxGeometry x="310" y="348.5" width="70" height="30" as="geometry" />
        </mxCell>
        <mxCell id="a2nmbCxX_LsTJUr5ybK8-15" value="16" style="rounded=0;whiteSpace=wrap;html=1;fillColor=#ffe6cc;strokeColor=#d79b00;" parent="1" vertex="1">
          <mxGeometry x="240" y="348.5" width="70" height="30" as="geometry" />
        </mxCell>
        <mxCell id="a2nmbCxX_LsTJUr5ybK8-16" value="V0" style="text;strokeColor=none;align=center;fillColor=none;html=1;verticalAlign=middle;whiteSpace=wrap;rounded=0;" parent="1" vertex="1">
          <mxGeometry x="150" y="185" width="60" height="30" as="geometry" />
        </mxCell>
        <mxCell id="a2nmbCxX_LsTJUr5ybK8-21" value="v1" style="text;strokeColor=none;align=center;fillColor=none;html=1;verticalAlign=middle;whiteSpace=wrap;rounded=0;" parent="1" vertex="1">
          <mxGeometry x="150" y="238.5" width="60" height="30" as="geometry" />
        </mxCell>
        <mxCell id="a2nmbCxX_LsTJUr5ybK8-22" value="v2" style="text;strokeColor=none;align=center;fillColor=none;html=1;verticalAlign=middle;whiteSpace=wrap;rounded=0;" parent="1" vertex="1">
          <mxGeometry x="150" y="295" width="60" height="30" as="geometry" />
        </mxCell>
        <mxCell id="a2nmbCxX_LsTJUr5ybK8-23" value="v3" style="text;strokeColor=none;align=center;fillColor=none;html=1;verticalAlign=middle;whiteSpace=wrap;rounded=0;" parent="1" vertex="1">
          <mxGeometry x="150" y="348.5" width="60" height="30" as="geometry" />
        </mxCell>
        <mxCell id="4emNMPM51AcQlzwp2NsV-1" value="&lt;font style=&quot;font-size: 16px;&quot;&gt;&lt;font color=&quot;#ff0000&quot;&gt;Strided load&lt;/font&gt;(bstride = 4)&lt;/font&gt;" style="text;strokeColor=none;align=center;fillColor=none;html=1;verticalAlign=middle;whiteSpace=wrap;rounded=0;" vertex="1" parent="1">
          <mxGeometry x="294" y="140" width="200" height="30" as="geometry" />
        </mxCell>
      </root>
    </mxGraphModel>
  </diagram>
</mxfile>
